<?xml version="1.0" encoding="UTF-8" standalone="no"?><!DOCTYPE svg PUBLIC "-//W3C//DTD SVG 1.1//EN" "http://www.w3.org/Graphics/SVG/1.1/DTD/svg11.dtd"><svg width="100%" height="100%" viewBox="0 0 959 584" version="1.1" xmlns="http://www.w3.org/2000/svg" xmlns:xlink="http://www.w3.org/1999/xlink" xml:space="preserve" xmlns:serif="http://www.serif.com/" style="fill-rule:evenodd;clip-rule:evenodd;stroke-linejoin:round;stroke-miterlimit:2;"><rect x="-281.02" y="-394.267" width="4465.59" height="3001.96" style="fill:#ffcd00;"/><g id="Colour-logo" serif:id="Colour logo"></g><g id="showcase-logo"><g><path d="M496.305,397.987l10.273,-0l0,44.958l56.575,0l0,-44.958l10.344,-0l0,106.329l-10.344,-0l0,-50.92l-56.575,-0l0,50.92l-10.273,-0l-0,-106.329Z" style="fill:#fff;fill-rule:nonzero;"/><path d="M626.008,397.987l16.607,-0l34.198,106.329l-10.414,-0l-10.766,-32.965l-42.994,0l-10.767,32.965l-10.484,-0l34.62,-106.329Zm8.304,7.013l-18.366,56.041l36.379,-0l-18.013,-56.041Z" style="fill:#fff;fill-rule:nonzero;"/><path d="M695.337,397.987l35.324,-0c12.385,-0 21.826,2.828 28.323,8.486c6.497,5.658 9.746,12.345 9.746,20.06c-0,4.489 -0.868,8.451 -2.604,11.888c-1.735,3.437 -4.304,6.488 -7.705,9.153c-3.401,2.665 -7.447,4.781 -12.138,6.348c-4.691,1.566 -10.508,2.349 -17.451,2.349l-23.221,0l-0,48.045l-10.274,-0l0,-106.329Zm10.133,9.188l-0,39.838l22.588,0c10.461,0 17.896,-1.847 22.306,-5.541c4.41,-3.694 6.615,-8.533 6.615,-14.518c-0,-6.827 -2.932,-12.041 -8.796,-15.641c-4.504,-2.759 -11.705,-4.138 -21.603,-4.138l-21.11,-0Z" style="fill:#fff;fill-rule:nonzero;"/><path d="M792.883,397.987l35.324,-0c12.385,-0 21.826,2.828 28.323,8.486c6.497,5.658 9.746,12.345 9.746,20.06c-0,4.489 -0.868,8.451 -2.604,11.888c-1.735,3.437 -4.304,6.488 -7.705,9.153c-3.401,2.665 -7.447,4.781 -12.138,6.348c-4.691,1.566 -10.508,2.349 -17.451,2.349l-23.221,0l-0,48.045l-10.274,-0l0,-106.329Zm10.133,9.188l0,39.838l22.588,0c10.461,0 17.896,-1.847 22.306,-5.541c4.41,-3.694 6.615,-8.533 6.615,-14.518c-0,-6.827 -2.932,-12.041 -8.796,-15.641c-4.504,-2.759 -11.705,-4.138 -21.603,-4.138l-21.11,-0Z" style="fill:#fff;fill-rule:nonzero;"/><path d="M878.467,397.987l11.399,-0l28.499,49.237l28.569,-49.237l11.399,-0l-34.761,60.108l0,46.221l-10.344,-0l0,-46.221l-34.761,-60.108Z" style="fill:#fff;fill-rule:nonzero;"/></g><g><path d="M588.256,339.775l0,4.502c-7.783,8.635 -14.929,15.758 -21.438,21.368c-6.509,5.611 -12.867,9.928 -19.075,12.953c-6.208,3.025 -12.207,4.537 -17.998,4.537c-5.003,-0 -9.3,-0.993 -12.891,-2.979c-3.59,-1.985 -6.3,-4.883 -8.13,-8.692c-1.83,-3.81 -2.745,-8.324 -2.745,-13.542c-0,-4.109 0.66,-8.462 1.98,-13.056c1.321,-4.595 3.232,-9.235 5.733,-13.922c2.502,-4.687 5.571,-9.524 9.208,-14.511c3.637,-4.988 7.91,-10.229 12.821,-15.724c5.096,-5.679 10.123,-10.586 15.08,-14.718c4.957,-4.133 9.45,-7.377 13.481,-9.732c4.03,-2.355 7.771,-4.11 11.223,-5.264c3.451,-1.155 6.312,-1.732 8.582,-1.732c2.316,0 4.285,0.554 5.907,1.662c1.621,1.109 2.872,2.725 3.752,4.849c0.88,2.124 1.32,4.571 1.32,7.342c0,5.218 -1.783,11.025 -5.35,17.42c-3.568,6.396 -8.015,12.572 -13.343,18.529c-5.327,5.956 -10.412,10.817 -15.253,14.58c-4.841,3.763 -8.327,5.645 -10.458,5.645c-1.436,0 -2.768,-0.566 -3.996,-1.697c-1.228,-1.131 -1.842,-2.413 -1.842,-3.844c0,-2.632 1.402,-5.818 4.205,-9.559c2.802,-3.74 5.86,-7.169 9.172,-10.286c3.313,-3.117 5.293,-4.675 5.942,-4.675c0.324,-0 0.486,0.139 0.486,0.416c0,0.415 -0.243,1.131 -0.729,2.147c-0.487,1.016 -0.73,1.639 -0.73,1.87c0,0.369 0.139,0.554 0.417,0.554c0.788,0 3.058,-2.101 6.81,-6.303c3.753,-4.202 7.192,-8.831 10.32,-13.888c3.127,-5.056 4.69,-9.2 4.69,-12.433c0,-1.339 -0.289,-2.366 -0.868,-3.082c-0.58,-0.716 -1.448,-1.074 -2.606,-1.074c-3.243,0 -8.166,2.621 -14.767,7.862c-6.602,5.241 -13.366,11.914 -20.292,20.018c-6.926,8.104 -12.705,16.473 -17.338,25.108c-4.632,8.635 -6.949,16.231 -6.949,22.788c0,3.787 0.568,6.95 1.703,9.49c1.135,2.539 2.803,4.502 5.003,5.887c2.201,1.385 4.853,2.078 7.957,2.078c6.717,0 14.338,-2.609 22.862,-7.827c8.525,-5.218 17.906,-12.906 28.144,-23.065Z" style="fill:#314754;fill-rule:nonzero;"/><path d="M639.606,340.052l-0,4.364c-4.031,4.109 -7.517,7.469 -10.459,10.078c-2.941,2.609 -5.512,4.583 -7.713,5.922c-2.201,1.339 -4.065,2.009 -5.594,2.009c-3.614,-0 -5.42,-2.125 -5.42,-6.373c-0,-3.417 1.123,-7.377 3.37,-11.879c2.247,-4.502 5.478,-9.801 9.694,-15.896c-2.085,1.154 -4.054,2.482 -5.907,3.983c-1.853,1.5 -3.497,3.07 -4.934,4.71c-1.436,1.639 -2.64,3.036 -3.613,4.19c-3.011,3.371 -5.907,6.823 -8.687,10.355c-2.779,3.533 -4.655,5.83 -5.628,6.892c-0.973,1.062 -1.9,1.593 -2.78,1.593c-3.614,0 -5.42,-4.433 -5.42,-13.299c-0,-2.909 0.44,-6.118 1.32,-9.627c0.88,-3.51 3.243,-8.151 7.088,-13.923c8.107,-12.098 15.045,-21.991 20.813,-29.68c5.767,-7.688 10.551,-13.506 14.35,-17.455c3.798,-3.948 6.346,-5.876 7.644,-5.783c1.621,0.138 2.93,0.462 3.926,0.969c0.996,0.508 1.494,1.086 1.494,1.732c-0,1.155 -0.799,3.059 -2.398,5.714c-1.598,2.656 -4.343,6.8 -8.234,12.434c-4.216,5.956 -7.204,10.147 -8.965,12.571c-1.76,2.424 -4.389,5.865 -7.887,10.321c-3.498,4.456 -6.694,8.427 -9.59,11.913c-2.895,3.487 -6.196,7.262 -9.902,11.325l-0,8.312c6.208,-6.88 11.582,-12.514 16.122,-16.901c4.54,-4.387 8.385,-7.7 11.535,-9.939c3.151,-2.24 5.467,-3.36 6.95,-3.36c1.389,0 2.686,0.82 3.891,2.459c1.205,1.639 1.807,2.99 1.807,4.052c-0,0.462 -0.232,1.039 -0.695,1.732c-3.336,3.971 -5.988,7.261 -7.957,9.87c-1.969,2.609 -3.486,4.941 -4.552,6.996c-1.065,2.055 -1.598,3.821 -1.598,5.299c0,2.17 1.043,3.255 3.127,3.255c2.224,0 7.158,-2.978 14.802,-8.935Z" style="fill:#314754;fill-rule:nonzero;"/><path d="M684.284,339.913l0,4.641c-3.057,2.771 -5.513,4.618 -7.366,5.541c-1.853,0.924 -4.517,1.293 -7.991,1.109c-6.023,7.111 -11.327,10.666 -15.914,10.666c-2.594,0 -4.957,-0.854 -7.088,-2.562c-2.131,-1.709 -3.833,-4.041 -5.107,-6.996c-1.274,-2.955 -1.911,-6.257 -1.911,-9.905c-0,-2.955 0.984,-6.234 2.953,-9.836c1.969,-3.601 4.517,-6.961 7.644,-10.078c3.127,-3.117 6.474,-5.633 10.041,-7.55c3.568,-1.916 6.88,-2.874 9.938,-2.874c2.177,-0 3.891,0.335 5.142,1.004c1.251,0.67 1.876,1.605 1.876,2.805c0,0.924 -0.532,1.986 -1.598,3.187c1.76,0.369 2.965,0.981 3.614,1.835c0.648,0.854 0.972,2.413 0.972,4.676c0,2.216 -0.521,5.01 -1.563,8.381c-1.042,3.371 -2.467,6.534 -4.274,9.489l1.251,1.247l1.042,-0c0.788,-0 1.564,-0.197 2.328,-0.589c0.765,-0.393 1.448,-0.808 2.05,-1.247c0.603,-0.439 1.923,-1.42 3.961,-2.944Zm-14.315,-18.216c-3.845,2.309 -7.134,4.398 -9.868,6.268c-2.733,1.87 -5.049,3.764 -6.949,5.68c-1.899,1.916 -3.173,3.844 -3.822,5.784c-1.158,5.171 -1.737,7.965 -1.737,8.381c0,3.047 2.131,4.571 6.393,4.571c1.992,0 5.328,-1.708 10.007,-5.126c-0.788,-2.17 -1.181,-4.248 -1.181,-6.233c-0,-2.909 0.602,-5.876 1.806,-8.901c1.205,-3.024 2.988,-6.499 5.351,-10.424Z" style="fill:#314754;fill-rule:nonzero;"/><path d="M728.824,339.913l-0,4.641c-3.058,2.771 -5.513,4.618 -7.366,5.541c-1.853,0.924 -4.517,1.293 -7.992,1.109c-6.022,7.111 -11.327,10.666 -15.913,10.666c-2.595,0 -4.957,-0.854 -7.088,-2.562c-2.131,-1.709 -3.834,-4.041 -5.108,-6.996c-1.274,-2.955 -1.911,-6.257 -1.911,-9.905c0,-2.955 0.985,-6.234 2.953,-9.836c1.969,-3.601 4.517,-6.961 7.644,-10.078c3.128,-3.117 6.475,-5.633 10.042,-7.55c3.567,-1.916 6.88,-2.874 9.937,-2.874c2.178,-0 3.892,0.335 5.142,1.004c1.251,0.67 1.877,1.605 1.877,2.805c-0,0.924 -0.533,1.986 -1.599,3.187c1.761,0.369 2.965,0.981 3.614,1.835c0.649,0.854 0.973,2.413 0.973,4.676c-0,2.216 -0.521,5.01 -1.564,8.381c-1.042,3.371 -2.467,6.534 -4.273,9.489l1.25,1.247l1.043,-0c0.787,-0 1.563,-0.197 2.328,-0.589c0.764,-0.393 1.448,-0.808 2.05,-1.247c0.602,-0.439 1.922,-1.42 3.961,-2.944Zm-14.315,-18.216c-3.846,2.309 -7.135,4.398 -9.868,6.268c-2.733,1.87 -5.05,3.764 -6.949,5.68c-1.9,1.916 -3.174,3.844 -3.822,5.784c-1.158,5.171 -1.738,7.965 -1.738,8.381c0,3.047 2.132,4.571 6.394,4.571c1.992,0 5.327,-1.708 10.006,-5.126c-0.787,-2.17 -1.181,-4.248 -1.181,-6.233c0,-2.909 0.602,-5.876 1.807,-8.901c1.204,-3.024 2.988,-6.499 5.351,-10.424Z" style="fill:#314754;fill-rule:nonzero;"/><path d="M727.847,346.147l-0,-5.125c2.548,-2.679 5.165,-6.419 7.852,-11.221c-2.594,-0.37 -3.891,-1.409 -3.891,-3.117c-0,-1.432 0.868,-3.279 2.605,-5.541c1.738,-2.263 3.776,-4.295 6.116,-6.096c2.339,-1.801 4.181,-2.701 5.524,-2.701c1.529,-0 2.293,0.623 2.293,1.87c0,0.508 -0.139,0.831 -0.417,0.97c-0.37,0.231 -0.555,0.623 -0.555,1.177c-0,0.462 0.37,0.693 1.111,0.693c2.317,-0 5.224,-0.473 8.722,-1.42c3.497,-0.947 5.895,-1.42 7.192,-1.42c1.065,0 1.783,0.993 2.154,2.978c0.973,5.265 1.459,8.243 1.459,8.936c0,0.646 -0.289,1.258 -0.868,1.835c-0.579,0.577 -2.201,1.72 -4.865,3.429c-2.663,1.708 -5.13,3.359 -7.4,4.952c-2.27,1.593 -5.212,3.821 -8.826,6.684c2.502,1.155 4.32,2.448 5.455,3.879c1.135,1.432 2.12,3.625 2.954,6.58l17.372,-13.576l0,4.641l-17.511,14.061c-0.464,4.433 -2.004,8.935 -4.621,13.507c-2.618,4.571 -5.664,8.681 -9.139,12.329c-3.474,3.648 -6.925,6.638 -10.354,8.97c-3.428,2.332 -5.93,3.498 -7.505,3.498c-1.529,-0 -2.594,-0.497 -3.196,-1.49c-0.603,-0.992 -0.904,-2.435 -0.904,-4.329c0,-2.724 0.591,-5.31 1.772,-7.757c1.182,-2.448 2.896,-4.884 5.143,-7.308c2.247,-2.424 4.957,-4.895 8.13,-7.411c3.174,-2.517 7.401,-5.576 12.682,-9.178c-0.509,-3.278 -1.366,-5.322 -2.571,-6.13c-1.204,-0.808 -3.046,-1.616 -5.525,-2.424c-2.478,-0.808 -3.717,-2.02 -3.717,-3.637c-0,-1.8 8.686,-8.704 26.059,-20.71c-2.78,0.554 -6.046,1.166 -9.798,1.836c-3.753,0.669 -7.32,1.143 -10.702,1.42c-2.363,3.74 -4.61,7.019 -6.741,9.835c-2.131,2.817 -3.961,4.987 -5.489,6.511Zm17.789,19.81c-3.335,2.309 -6.555,4.906 -9.659,7.792c-3.104,2.886 -5.779,5.622 -8.026,8.208c-2.247,2.586 -3.37,4.156 -3.37,4.71c-0,1.062 0.463,1.593 1.389,1.593c1.668,0 3.822,-0.923 6.463,-2.77c2.641,-1.847 5.212,-4.491 7.713,-7.931c2.502,-3.44 4.332,-7.308 5.49,-11.602Z" style="fill:#314754;fill-rule:nonzero;"/><path d="M800.113,309.09c-1.158,0 -2.259,-0.438 -3.301,-1.316c-1.042,-0.877 -1.563,-1.985 -1.563,-3.324c-0,-2.032 0.972,-4.295 2.918,-6.788c1.946,-2.494 3.961,-3.741 6.046,-3.741c1.39,0 2.548,0.428 3.474,1.282c0.927,0.854 1.39,2.089 1.39,3.706c0,1.985 -0.949,4.178 -2.849,6.58c-1.899,2.401 -3.938,3.601 -6.115,3.601Zm4.725,30.962l0,5.056c-4.493,5.772 -8.686,10.125 -12.578,13.057c-3.891,2.932 -7.203,4.398 -9.937,4.398c-3.799,0 -6.625,-1.986 -8.478,-5.957c-1.853,-3.971 -2.779,-8.312 -2.779,-13.022c-0,-1.8 0.185,-3.521 0.556,-5.16c0.37,-1.639 0.81,-2.99 1.32,-4.052c0.51,-1.062 1.459,-2.724 2.849,-4.987c6.579,-10.205 12.601,-15.307 18.068,-15.307c2.826,-0 4.239,1.085 4.239,3.255c-0,1.478 -0.915,3.786 -2.745,6.927c-1.83,3.14 -3.463,5.379 -4.899,6.718c-4.031,3.879 -6.66,6.58 -7.888,8.104c-1.227,1.524 -1.841,3.256 -1.841,5.195c-0,1.662 0.625,3.048 1.876,4.156c1.251,1.108 2.873,1.662 4.865,1.662c2.177,0 4.574,-0.796 7.192,-2.389c2.617,-1.593 6.011,-4.145 10.18,-7.654Z" style="fill:#314754;fill-rule:nonzero;"/><path d="M851.046,327.515c-8.154,9.051 -12.231,15.354 -12.231,18.909c0,1.986 0.811,2.979 2.432,2.979c1.344,-0 3.093,-0.704 5.247,-2.113c2.154,-1.408 5.524,-3.913 10.111,-7.515l-0,4.779c-6.579,6.465 -11.628,11.129 -15.149,13.992c-3.521,2.863 -6.393,4.294 -8.617,4.294c-3.799,0 -5.698,-2.493 -5.698,-7.48c-0,-1.478 0.231,-2.933 0.695,-4.364c0.463,-1.432 1.1,-2.921 1.911,-4.468c0.81,-1.547 2.05,-3.763 3.717,-6.649c1.668,-2.886 3.591,-6.153 5.768,-9.801c-2.641,1.339 -5.953,3.994 -9.937,7.965c-2.594,2.494 -4.795,4.86 -6.602,7.1c-1.807,2.239 -3.741,4.733 -5.802,7.481c-2.062,2.747 -3.567,4.594 -4.517,5.541c-0.95,0.946 -1.911,1.42 -2.884,1.42c-1.483,-0 -2.849,-1.547 -4.1,-4.641c-1.251,-3.094 -1.876,-6.696 -1.876,-10.805c-0,-2.54 0.289,-4.526 0.868,-5.957c0.579,-1.432 1.726,-3.463 3.44,-6.096c3.197,-4.894 5.953,-8.485 8.27,-10.77c2.316,-2.286 4.54,-3.429 6.671,-3.429c1.482,0 2.675,0.254 3.579,0.762c0.903,0.508 1.355,1.293 1.355,2.355c-0,0.462 -0.139,0.947 -0.417,1.455c-0.278,0.508 -0.591,0.969 -0.938,1.385c-0.348,0.416 -1.078,1.224 -2.189,2.424c-7.32,8.081 -10.98,13.322 -10.98,15.723c-0,1.339 0.44,2.009 1.32,2.009c0.556,0 1.633,-0.889 3.232,-2.667c1.598,-1.777 3.659,-4.109 6.184,-6.995c2.525,-2.886 5.513,-5.9 8.965,-9.04c3.451,-3.14 7.377,-6.164 11.778,-9.073c2.456,-1.709 4.494,-2.563 6.116,-2.563c0.741,-0 1.471,1.016 2.189,3.048c0.718,2.031 1.077,4.086 1.077,6.164c-0,1.016 -0.996,2.563 -2.988,4.641Z" style="fill:#314754;fill-rule:nonzero;"/><path d="M911.429,344.693l-23.071,18.909c-6.486,11.175 -12.393,19.521 -17.72,25.039c-5.328,5.518 -9.289,8.278 -11.883,8.278c-1.39,-0 -2.085,-0.855 -2.085,-2.563c0,-3.325 1.691,-7.573 5.073,-12.745c1.343,-2.032 2.884,-4.017 4.621,-5.957c1.737,-1.939 3.382,-3.613 4.934,-5.022c1.552,-1.408 3.602,-3.163 6.15,-5.264c2.548,-2.101 4.285,-3.544 5.212,-4.329c4.632,-9.42 7.968,-16.623 10.006,-21.61c-4.354,4.617 -8.153,8.404 -11.396,11.359c-3.243,2.955 -6.22,5.23 -8.93,6.823c-2.71,1.593 -5.154,2.389 -7.331,2.389c-2.363,0 -4.54,-1.881 -6.532,-5.645c-1.992,-3.763 -2.988,-7.631 -2.988,-11.602c-0,-1.847 0.428,-3.786 1.285,-5.818c0.857,-2.032 2.201,-4.202 4.031,-6.511c1.83,-2.309 4.158,-4.675 6.984,-7.1c2.826,-2.424 6.138,-4.79 9.937,-7.099c7.181,-4.479 12.763,-6.719 16.747,-6.719c2.965,0 4.448,1.085 4.448,3.256c-0,3.001 -3.22,5.933 -9.66,8.796c-3.937,1.709 -7.841,3.971 -11.709,6.788c-3.868,2.817 -6.995,5.807 -9.381,8.97c-2.386,3.163 -3.579,6.014 -3.579,8.554c0,1.247 0.301,2.24 0.903,2.979c0.603,0.738 1.39,1.108 2.363,1.108c1.622,-0 3.475,-0.739 5.559,-2.217c2.085,-1.477 5.166,-4.086 9.243,-7.827c1.853,-1.708 4.32,-4.467 7.4,-8.277c3.081,-3.809 5.629,-6.718 7.644,-8.727c2.016,-2.009 3.834,-3.013 5.456,-3.013c0.926,-0 1.679,0.288 2.258,0.866c0.579,0.577 0.869,1.42 0.869,2.528c-0,2.124 -0.846,5.206 -2.537,9.247c-1.691,4.04 -4.737,10.655 -9.138,19.844l16.817,-12.191l-0,4.503Z" style="fill:#314754;fill-rule:nonzero;"/></g><path d="M327.484,107.888c12.19,30.955 3.948,63.136 -18.404,71.883c-22.357,8.747 -50.362,-9.252 -62.553,-40.201c-12.195,-30.954 -3.952,-63.135 18.404,-71.887c22.357,-8.743 50.362,9.251 62.553,40.205" style="fill:#fff;fill-rule:nonzero;"/><path d="M292.678,520.685c-45.397,-58.473 48.187,-116.942 48.187,-116.942c10.463,119.327 -48.187,116.942 -48.187,116.942m208.815,-483.097c-69.842,25.061 -134.086,100.242 -134.086,100.242c-46.099,98.847 1.391,175.419 1.391,175.419c4.194,-155.929 124.316,-215.797 124.316,-215.797c-110.343,29.236 -132.696,136.439 -132.696,136.439c-19.553,-150.362 202.528,-196.303 202.528,-196.303c-18.153,139.221 -203.923,313.249 -203.923,313.249c-20.952,-62.653 -40.505,-100.242 -124.311,-165.676c-83.806,-65.434 -234.659,-44.55 -234.659,-44.55c-0,0 -2.79,52.902 32.126,116.946c34.926,64.039 222.656,83.533 222.656,83.533l56.699,23.67c-0,-0 23.747,-32.022 -56.699,-115.555c-80.437,-83.533 -165.387,-57.083 -165.387,-57.083c141.074,25.061 191.359,125.303 191.359,125.303c-13.969,-6.966 -85.206,-19.494 -85.206,-19.494c-62.853,-5.567 -106.153,-30.627 -106.153,-30.627c-71.232,-40.374 -65.648,-108.594 -65.648,-108.594c86.601,-29.236 210.912,43.159 210.912,43.159c101.959,72.396 104.758,172.633 104.758,172.633c-64.252,25.061 -84.635,104.418 -84.635,104.418c-27.363,94.671 37.843,104.413 37.843,104.413c80.314,-50.116 69.14,-203.26 69.14,-203.26c30.727,-32.021 71.232,-79.357 71.232,-79.357c92.19,-87.709 143.869,-245.029 143.869,-245.029c12.565,-26.451 19.553,-55.687 19.553,-55.687c-5.589,8.352 -94.979,37.588 -94.979,37.588" style="fill:#fff;fill-rule:nonzero;"/><path d="M315.851,113.679c7.75,19.685 2.685,40.079 -11.315,45.559c-14.005,5.48 -31.639,-6.034 -39.389,-25.715c-7.75,-19.685 -2.685,-40.083 11.315,-45.558c14.005,-5.48 31.639,6.034 39.389,25.714" style="fill:#ffcd00;fill-rule:nonzero;"/></g><g id="showcase-logo1" serif:id="showcase-logo"></g></svg>